# xmcd
#
# Track frame offsets:
#	150
#	38452
#	70710
#	91382
#	130027
#	169007
#	189362
#	211037
#	224330
#	262055
#
# Disc length: 3622 seconds
#
# Revision: 0
# Processed by: cddbd v1.5.2PL0 Copyright (c) Steve Scherf et al.
# Submitted via: dBpowerAMP V4.0
#
DISCID=830e240a
DTITLE=Bubur M - Ikut Dontjil (Live)
DYEAR=1900
DGENRE=
TTITLE0=Intro/Ikut Dontjil Pung Bebunji
TTITLE1=Rindu E
TTITLE2=Saat Tjinta Bersemi
TTITLE3=Medley Sedi
TTITLE4=Medley Berdansa
TTITLE5=Aku Perlu Enkau
TTITLE6=Shoop Be Do Bap
TTITLE7=Mama Djangan Mara Mara
TTITLE8=Mengapa
TTITLE9=Selesa
EXTD=
EXTT0=
EXTT1=
EXTT2=
EXTT3=
EXTT4=
EXTT5=
EXTT6=
EXTT7=
EXTT8=
EXTT9=
PLAYORDER=
